<svg width="33" height="34" viewBox="0 0 33 34" fill="none" xmlns="http://www.w3.org/2000/svg">
<g clip-path="url(#clip0_106_64)">
<path d="M20.625 14.1667L26.8854 10.9423C27.095 10.8344 27.3278 10.7835 27.5619 10.7943C27.7959 10.8052 28.0234 10.8775 28.2227 11.0044C28.422 11.1313 28.5866 11.3085 28.7007 11.5193C28.8149 11.7301 28.8749 11.9674 28.875 12.2088V21.7912C28.8749 22.0325 28.8149 22.2699 28.7007 22.4807C28.5866 22.6915 28.422 22.8687 28.2227 22.9956C28.0234 23.1225 27.7959 23.1948 27.5619 23.2056C27.3278 23.2165 27.095 23.1656 26.8854 23.0577L20.625 19.8333V14.1667Z" stroke="white" stroke-width="3" stroke-linecap="round" stroke-linejoin="round"/>
<path d="M4.125 11.3333C4.125 10.5819 4.41473 9.86122 4.93046 9.32986C5.44618 8.79851 6.14565 8.5 6.875 8.5H17.875C18.6043 8.5 19.3038 8.79851 19.8195 9.32986C20.3353 9.86122 20.625 10.5819 20.625 11.3333V22.6667C20.625 23.4181 20.3353 24.1388 19.8195 24.6701C19.3038 25.2015 18.6043 25.5 17.875 25.5H6.875C6.14565 25.5 5.44618 25.2015 4.93046 24.6701C4.41473 24.1388 4.125 23.4181 4.125 22.6667V11.3333Z" stroke="white" stroke-width="3" stroke-linecap="round" stroke-linejoin="round"/>
<path d="M13.6301 12.4688V21H11.7023V14.6953L10.1496 15.2637V13.7637L13.4602 12.4688H13.6301Z" fill="white"/>
</g>
<defs>
<clipPath id="clip0_106_64">
<rect width="33" height="34" fill="white"/>
</clipPath>
</defs>
</svg>
