<svg width="33" height="34" viewBox="0 0 33 34" fill="none" xmlns="http://www.w3.org/2000/svg">
<g clip-path="url(#clip0_106_68)">
<path d="M20.625 14.1667L26.8854 10.9423C27.095 10.8344 27.3278 10.7835 27.5619 10.7943C27.7959 10.8052 28.0234 10.8775 28.2227 11.0044C28.422 11.1313 28.5866 11.3085 28.7007 11.5193C28.8149 11.7301 28.8749 11.9674 28.875 12.2088V21.7912C28.8749 22.0325 28.8149 22.2699 28.7007 22.4807C28.5866 22.6915 28.422 22.8687 28.2227 22.9956C28.0234 23.1225 27.7959 23.1948 27.5619 23.2056C27.3278 23.2165 27.095 23.1656 26.8854 23.0577L20.625 19.8333V14.1667Z" stroke="white" stroke-width="3" stroke-linecap="round" stroke-linejoin="round"/>
<path d="M4.125 11.3333C4.125 10.5819 4.41473 9.86122 4.93046 9.32986C5.44618 8.79851 6.14565 8.5 6.875 8.5H17.875C18.6043 8.5 19.3038 8.79851 19.8195 9.32986C20.3353 9.86122 20.625 10.5819 20.625 11.3333V22.6667C20.625 23.4181 20.3353 24.1388 19.8195 24.6701C19.3038 25.2015 18.6043 25.5 17.875 25.5H6.875C6.14565 25.5 5.44618 25.2015 4.93046 24.6701C4.41473 24.1388 4.125 23.4181 4.125 22.6667V11.3333Z" stroke="white" stroke-width="3" stroke-linecap="round" stroke-linejoin="round"/>
<path d="M14.8664 19.4766V21H9.72773V19.7109L12.0246 16.8281C12.2121 16.5508 12.3605 16.3027 12.4699 16.084C12.5832 15.8613 12.6652 15.6602 12.716 15.4805C12.7668 15.3008 12.7922 15.1387 12.7922 14.9941C12.7922 14.748 12.7688 14.543 12.7219 14.3789C12.675 14.2109 12.6066 14.084 12.5168 13.998C12.4309 13.9121 12.3234 13.8691 12.1945 13.8691C12.0539 13.8691 11.9328 13.9277 11.8313 14.0449C11.7297 14.1621 11.6516 14.3223 11.5969 14.5254C11.5461 14.7285 11.5207 14.957 11.5207 15.2109H9.58711C9.58711 14.6875 9.69844 14.209 9.92109 13.7754C10.1438 13.3418 10.4543 12.9961 10.8527 12.7383C11.2512 12.4766 11.7141 12.3457 12.2414 12.3457C12.7883 12.3457 13.2453 12.4434 13.6125 12.6387C13.9836 12.834 14.2609 13.1172 14.4445 13.4883C14.632 13.8555 14.7258 14.2988 14.7258 14.8184C14.7258 15.1152 14.6867 15.4004 14.6086 15.6738C14.5305 15.9473 14.4172 16.2188 14.2688 16.4883C14.1203 16.7539 13.9367 17.0273 13.718 17.3086C13.4992 17.5898 13.2473 17.8887 12.9621 18.2051L12.2531 19.4766H14.8664Z" fill="white"/>
</g>
<defs>
<clipPath id="clip0_106_68">
<rect width="33" height="34" fill="white"/>
</clipPath>
</defs>
</svg>
