<svg width="22" height="22" viewBox="0 0 22 22" fill="none" xmlns="http://www.w3.org/2000/svg">
<path d="M7.33317 4.64932C8.72154 3.84777 10.3343 3.52325 11.9247 3.72544C13.515 3.92763 14.9953 4.64539 16.1389 5.76885C17.2825 6.89232 18.0265 8.35959 18.2569 9.94609C18.4874 11.5326 18.1916 13.1509 17.4149 14.5533C16.6381 15.9557 15.4232 17.0649 13.9561 17.7112C12.489 18.3575 10.8506 18.5052 9.29154 18.1318C7.7325 17.7584 6.33878 16.8843 5.32371 15.6435C4.30864 14.4027 3.72815 12.8634 3.67109 11.2612L3.6665 11L3.67109 10.7387C3.71541 9.49657 4.07473 8.28604 4.71532 7.22086C5.3559 6.15567 6.25672 5.27079 7.33317 4.64932Z" fill="white"/>
</svg>
