<svg width="29" height="30" viewBox="0 0 29 30" fill="none" xmlns="http://www.w3.org/2000/svg">
<path d="M14.5 25H6.04167C5.40073 25 4.78604 24.7366 4.33283 24.2678C3.87961 23.7989 3.625 23.163 3.625 22.5V11.25C3.625 10.587 3.87961 9.95107 4.33283 9.48223C4.78604 9.01339 5.40073 8.75 6.04167 8.75H7.25C7.89094 8.75 8.50563 8.48661 8.95884 8.01777C9.41205 7.54893 9.66667 6.91304 9.66667 6.25C9.66667 5.91848 9.79397 5.60054 10.0206 5.36612C10.2472 5.1317 10.5545 5 10.875 5H18.125C18.4455 5 18.7528 5.1317 18.9794 5.36612C19.206 5.60054 19.3333 5.91848 19.3333 6.25C19.3333 6.91304 19.5879 7.54893 20.0412 8.01777C20.4944 8.48661 21.1091 8.75 21.75 8.75H22.9583C23.5993 8.75 24.214 9.01339 24.6672 9.48223C25.1204 9.95107 25.375 10.587 25.375 11.25V15.625" stroke="white" stroke-width="3" stroke-linecap="round" stroke-linejoin="round"/>
<path d="M10.875 16.25C10.875 17.2446 11.2569 18.1984 11.9367 18.9017C12.6166 19.6049 13.5386 20 14.5 20C15.4614 20 16.3834 19.6049 17.0633 18.9017C17.7431 18.1984 18.125 17.2446 18.125 16.25C18.125 15.2554 17.7431 14.3016 17.0633 13.5983C16.3834 12.8951 15.4614 12.5 14.5 12.5C13.5386 12.5 12.6166 12.8951 11.9367 13.5983C11.2569 14.3016 10.875 15.2554 10.875 16.25Z" stroke="white" stroke-width="3" stroke-linecap="round" stroke-linejoin="round"/>
<path d="M22.958 20V27.5" stroke="white" stroke-width="3" stroke-linecap="round" stroke-linejoin="round"/>
<path d="M26.583 23.75L22.958 27.5L19.333 23.75" stroke="white" stroke-width="3" stroke-linecap="round" stroke-linejoin="round"/>
</svg>
